<svg width="419" height="425" viewBox="0 0 419 425" fill="none" xmlns="http://www.w3.org/2000/svg">
<circle cx="200.797" cy="200.151" r="180" stroke="#84B1F5" stroke-width="40"/>
<path d="M173.204 125.539C172.651 134.047 179.951 143.601 188.71 145.772C190.066 161.881 225.008 166.557 246.073 150.571C267.139 134.585 266.598 118.262 254.047 105.964C248.169 100.204 252.406 77.8209 246.92 71.8569C243.059 67.6602 235.804 72.7361 236.012 67.1423C236.368 57.5531 220.305 54.1053 214.786 60.9558C211.232 65.3672 210.79 70.2292 200.748 71.5244C188.362 73.122 194.072 96.0952 188.228 99.8147C176.808 107.082 173.758 117.031 173.204 125.539Z" fill="#222222"/>
<path d="M194.881 104.253C195.459 101.941 197.954 100.803 199.06 101.587C199.831 102.046 199.467 111.76 198.952 111.46C198.438 111.159 194.16 107.143 194.881 104.253Z" fill="#FABF9D"/>
<path d="M246.683 108.589C246.498 106.211 244.207 104.674 242.987 105.264C242.15 105.588 240.897 115.234 241.454 115.023C242.011 114.812 246.915 111.56 246.683 108.589Z" fill="#FABF9D"/>
<path d="M210.062 141.821C207.001 144.051 201.845 144.41 198.01 145.258C197.439 154.032 206.448 164.549 215.488 165.137C224.528 165.725 236.056 143.004 229.206 143.066C221.992 143.131 223.944 133.645 223.123 129.854C222.301 126.062 214.873 125.312 213.285 129.214C211.696 133.116 211.743 140.595 210.062 141.821Z" fill="#FABF9D"/>
<path d="M215.265 133.964C202.969 132.523 196.088 112.691 199.397 98.7544C209.605 74.9336 244.121 83.3195 244.125 104.867C244.127 117.15 230.634 135.764 215.265 133.964Z" fill="#FABF9D"/>
<path d="M217.77 122.812C218.61 122.575 218.582 122.593 219.122 122.441C220.153 122.15 220.919 121.491 220.968 122.903C220.989 123.474 220.802 126.378 219.122 126.852C216.93 127.47 214.854 124.915 214.961 124.037C215.068 123.159 216.72 123.108 217.77 122.812Z" fill="white"/>
<path d="M217.818 111.905C217.346 114.489 216.573 119.656 217.252 119.656C217.931 119.656 218.727 118.866 219.199 118.687" stroke="#E76161" stroke-width="0.5"/>
<path d="M122.097 311.573C120.945 308.012 120.361 306.206 126.391 294.208C129.758 287.508 134.524 258.391 138.22 232.206C139.85 220.654 141.272 209.672 142.274 201.437C152.87 191.133 152.414 201.11 160.08 208.704C167.746 216.298 137.272 292.947 135.78 296.174C134.288 299.4 138.181 308.11 139.091 311.567C139.964 314.884 137.122 314.651 135.054 311.679C135.503 313.222 135.381 315.751 131.368 317.204C126.993 318.789 123.44 315.724 122.118 311.636L122.097 311.573Z" fill="#FABF9D"/>
<path d="M326.43 279.291C326.836 275.513 327.041 273.597 318.229 263.392C313.308 257.694 302.056 230.416 292.543 205.733C288.346 194.844 284.488 184.46 281.661 176.657C268.53 169.273 271.176 178.92 264.961 188.304C258.747 197.687 306.78 264.93 309.017 267.707C311.253 270.484 309.157 279.999 308.978 283.614C308.806 287.082 311.673 286.13 313.147 282.695C313.023 284.319 313.702 286.763 318.14 287.163C322.979 287.599 325.958 283.695 326.423 279.358L326.43 279.291Z" fill="#FABF9D"/>
<path d="M211.734 91.4642C204.289 90.9801 199.559 104.023 198.262 101.536C194.226 93.7968 209.211 76.8814 226.072 80.381C240.249 83.3235 247.287 104.06 244.226 105.059C237.406 107.285 233.657 83.5635 229.628 87.2876C224.23 92.2769 219.566 91.9736 211.734 91.4642Z" fill="#222222"/>
<path d="M264.961 266.615C262.714 250.018 247.073 236.664 239.707 230.682C225.508 229.758 192.098 238.339 180.91 241.114C169.722 243.888 168.656 259.502 164.81 271.05C159.501 286.992 165.821 302.089 161.974 314.656C154.762 338.218 143.296 359.634 147.345 375.384C151.82 392.794 269.521 395.066 299.372 369.784C323.674 349.202 283.703 333.572 283.2 310.523C282.448 276.03 268.209 290.591 264.961 266.615Z" fill="#7EB0FB"/>
<path d="M264.961 266.615C262.714 250.018 247.073 236.664 239.707 230.682C225.508 229.758 192.098 238.339 180.91 241.114C169.722 243.888 168.656 259.502 164.81 271.05C159.501 286.992 165.821 302.089 161.974 314.656C154.762 338.218 143.296 359.634 147.345 375.384C151.82 392.794 269.521 395.066 299.372 369.784C323.674 349.202 283.703 333.572 283.2 310.523C282.448 276.03 268.209 290.591 264.961 266.615Z" fill="url(#paint0_linear)"/>
<path d="M165.531 268.16C169.681 271.954 189.738 251.048 194.485 241.739C194.627 240.683 183.996 235.896 179.821 236.948C173.601 238.515 164.574 267.284 165.531 268.16Z" fill="#9BB7E0"/>
<path d="M257.293 249.027C255.786 253.735 229.034 244.252 224.939 233.306C223.463 229.36 232.181 228.703 236.186 228.697C240.192 228.69 257.691 247.785 257.293 249.027Z" fill="#9BB7E0"/>
<path d="M230.419 235.264C234.379 240.061 247.275 246.24 250.252 246.433" stroke="white" stroke-width="0.4"/>
<path d="M231.382 233.871C243.261 233.164 243.338 228.198 241.891 225.803C236.321 216.689 198.075 233.592 199.42 235.652C200.765 237.711 216.534 234.754 231.382 233.871Z" fill="#222222"/>
<rect x="209.363" y="229.796" width="10.7896" height="5.99351" rx="1" transform="rotate(-1.51329 209.363 229.796)" stroke="#D8D8D8" stroke-width="2"/>
<path d="M188.728 244.035C186.962 247.925 180.916 254.955 175.83 257.615" stroke="white" stroke-width="0.4"/>
<path d="M215.782 157.495C213.027 161.287 205.602 150.65 202.234 144.857C197.376 143.235 183.204 144.224 173.936 150.152C164.668 156.081 138.009 186.34 136.994 201.954C136.527 209.133 153.568 213.979 164.469 214.688C177.367 215.527 178.417 179.548 180.213 178.172C184.128 175.172 163.905 238.669 173.717 244.928C189.1 254.74 203.712 232.994 208.788 231.188C227.888 224.392 233.131 234.617 251.77 226.773C268.225 219.85 252.123 176.598 250.729 170.479C249.941 167.022 255.587 186.341 259.242 194.417C262.897 202.492 284.845 192.102 289.458 181.429C294.071 170.756 257.773 148.008 250.217 144.32C240.383 139.521 232.734 141.877 227.966 142.873C223.199 143.87 219.566 152.286 215.782 157.495Z" fill="#F7F7F7"/>
<path d="M215.902 158.756C213.127 167.209 216.985 183.699 219.452 194.5C222.362 207.238 219.746 222.822 213.147 229.869" stroke="#E5E5E5" stroke-width="0.5"/>
<path d="M248.767 183.055C248.864 181.566 248.008 174.194 245.17 172.675C243.91 171.525 235.69 173.353 235.177 174.428C233.94 177.018 235.507 181.659 236.398 184.387C237.289 187.115 240.712 191.953 244.775 191.073C248.295 190.31 248.646 184.916 248.767 183.055Z" fill="#960202"/>
<path d="M214.607 158.137C212.177 158.085 204.318 143.487 200.181 144.357C200.078 145.937 196.856 171.401 201.925 172.789C206.993 174.176 217.646 158.202 214.607 158.137Z" fill="#E5E5E5"/>
<path d="M214.873 158.155C215.44 157.658 219.847 143.258 230.531 142.399C226.008 149.454 234.173 165.635 229.978 169.512C224.735 174.359 214.084 158.847 214.873 158.155Z" fill="#E5E5E5"/>
<path d="M183.889 145.994C183.774 145.719 179.814 147.064 177.052 148.486C176.243 152.706 184.691 170.611 179.789 196.727C178.314 204.583 191.16 202.539 192.655 195.961C195.179 184.862 185.74 150.386 183.889 145.994Z" fill="#8965E5"/>
<path d="M183.889 145.994C183.774 145.719 179.814 147.064 177.052 148.486C176.243 152.706 184.691 170.611 179.789 196.727C178.314 204.583 191.16 202.539 192.655 195.961C195.179 184.862 185.74 150.386 183.889 145.994Z" fill="url(#paint1_linear)"/>
<path d="M242.372 141.786C242.927 141.466 245.546 142.26 248.673 143.442C250.458 147.37 242.597 163.386 253.546 187.717C256.84 195.036 244.778 196.688 241.764 190.621C236.678 180.385 238.222 144.18 242.372 141.786Z" fill="#8965E5"/>
<path d="M242.372 141.786C242.927 141.466 245.546 142.26 248.673 143.442C250.458 147.37 242.597 163.386 253.546 187.717C256.84 195.036 244.778 196.688 241.764 190.621C236.678 180.385 238.222 144.18 242.372 141.786Z" fill="url(#paint2_linear)"/>
<path d="M183.483 201.505C178.486 212.662 175.133 210.842 174 211.836C173.717 212.085 172.504 218.414 173.071 217.917C173.518 217.524 183.58 213.827 187.668 202.846C189.61 197.632 190.416 181.129 188.472 174.061C187.307 169.823 183.859 171.09 184.38 175.396C184.901 179.703 185.444 197.128 183.483 201.505Z" fill="#7C5EC6"/>
<path d="M251.777 197.83C258.236 208.034 257.603 205.063 258.765 205.867C259.055 206.068 259.189 211.662 258.934 211.486C258.474 211.168 254.122 209.963 248.473 199.791C245.791 194.962 241.852 178.855 242.116 171.603C242.274 167.257 245.463 167.972 245.867 172.288C246.272 176.603 249.243 193.826 251.777 197.83Z" fill="#7C5EC6"/>
<path d="M235.433 67.8346C234.586 63.0623 231.14 55.9658 221.466 56.7798C216.096 57.2316 213.07 62.7138 212.614 65.6213" stroke="#222222"/>
<path d="M244.338 86.9095C247.36 83.1202 254.094 77.0929 246.722 70.7767C244.698 69.043 239.281 69.8872 236.797 71.4664" stroke="#222222"/>
<path d="M211.645 74.2267C207.787 71.2935 198.88 67.3979 193.884 75.573C191.074 80.171 191.737 85.6279 193.373 88.0741" stroke="#222222"/>
<path d="M243.823 107.168C245.169 106.989 245.493 110.214 243.546 111.422" stroke="#EAA8A4"/>
<path d="M197.735 103.653C196.42 103.302 195.68 106.446 197.459 107.891" stroke="#EAA8A4"/>
<circle cx="212.552" cy="169.218" r="1.06607" transform="rotate(3.72075 212.552 169.218)" fill="#E5E5E5"/>
<circle cx="216.712" cy="220.222" r="1.06607" transform="rotate(3.72075 216.712 220.222)" fill="#E5E5E5"/>
<circle cx="216.984" cy="191.402" r="1.06607" transform="rotate(3.72075 216.984 191.402)" fill="#E5E5E5"/>
<path d="M212.206 108.851C212.167 109.438 211.798 110.281 211.211 110.243C210.623 110.205 210.04 109.3 210.078 108.712C210.116 108.125 210.623 107.437 211.211 107.475C211.799 107.513 212.244 108.263 212.206 108.851Z" fill="#3F0000"/>
<path d="M228.16 109.888C228.121 110.476 227.684 111.256 227.096 111.217C226.508 111.179 225.994 110.338 226.032 109.75C226.07 109.162 226.508 108.293 227.096 108.331C227.684 108.369 228.198 109.301 228.16 109.888Z" fill="#3F0000"/>
<path d="M213.412 106.699C213.385 107.115 212.505 105.944 211.33 105.868C210.156 105.792 209.131 106.838 209.158 106.423C209.176 106.146 210.174 105.515 211.348 105.591C212.523 105.667 213.43 106.422 213.412 106.699Z" fill="#3F0000"/>
<path d="M229.366 107.736C229.339 108.152 228.459 106.982 227.284 106.905C226.11 106.829 225.086 107.876 225.113 107.46C225.131 107.183 226.128 106.552 227.303 106.628C228.477 106.704 229.384 107.459 229.366 107.736Z" fill="#3F0000"/>
<path d="M53.5486 372.642C53.5485 366.497 81.1451 316.595 94.9434 292.413C120.975 271.502 138.045 287.292 151.701 305.642C165.357 323.992 155.968 392.699 155.542 396.967C155.115 401.234 115.854 400.381 109.026 396.967C102.198 393.553 119.268 336.368 117.988 333.381C116.708 330.394 106.466 388.005 100.064 393.979C93.6631 399.954 53.5487 380.323 53.5486 372.642Z" fill="#818182"/>
<path d="M53.5486 372.642C53.5485 366.497 81.1451 316.595 94.9434 292.413C120.975 271.502 138.045 287.292 151.701 305.642C165.357 323.992 155.968 392.699 155.542 396.967C155.115 401.234 115.854 400.381 109.026 396.967C102.198 393.553 119.268 336.368 117.988 333.381C116.708 330.394 106.466 388.005 100.064 393.979C93.6631 399.954 53.5487 380.323 53.5486 372.642Z" fill="url(#paint3_linear)"/>
<path d="M91.588 170.531C90.858 178.561 97.1061 194.826 107.961 197.646C113.122 197.646 126.321 195.665 136.015 195.665C139.713 195.665 147.486 181.794 146.131 172.408C145.482 167.916 142.517 162.204 139.091 162.204C140.078 154.246 136.776 148.012 130.477 151.276C119.329 157.051 113.062 145.872 103.753 157.905C95.7567 156.414 92.2076 163.716 91.588 170.531Z" fill="#222222"/>
<path d="M142.624 183.918C142.253 181.874 140.148 180.745 139.142 181.364C138.445 181.718 138.213 190.186 138.677 189.954C139.142 189.722 143.089 186.471 142.624 183.918Z" fill="#FABF9D"/>
<path d="M97.3361 184.759C97.6318 182.702 99.7104 181.495 100.738 182.076C101.448 182.405 101.992 190.864 101.52 190.649C101.047 190.434 96.9665 187.329 97.3361 184.759Z" fill="#FABF9D"/>
<path d="M127.3 215.725C129.835 217.838 134.299 218.441 137.585 219.395C137.585 227.057 129.158 235.692 121.264 235.692C113.37 235.692 104.631 215.284 110.584 215.725C116.852 216.189 115.692 207.831 116.62 204.581C117.549 201.33 124.05 201.098 125.211 204.581C126.372 208.063 125.907 214.564 127.3 215.725Z" fill="#FABF9D"/>
<path d="M123.221 208.599C133.994 208.042 141.099 191.186 139.009 178.881C131.48 157.591 100.994 162.931 99.7717 181.667C99.0752 192.347 109.755 209.296 123.221 208.599Z" fill="#FABF9D"/>
<path d="M120.062 197.286C120.813 197.435 120.784 197.438 121.266 197.534C122.188 197.716 123.048 197.505 122.526 198.629C122.314 199.083 121.014 201.278 119.513 200.981C117.555 200.592 116.948 197.771 117.38 197.128C117.813 196.484 119.124 197.1 120.062 197.286Z" fill="white"/>
<path d="M194.189 368.301C195.392 365.27 196.002 363.733 191.437 352.96C188.888 346.944 186.391 321.357 184.658 298.379C183.894 288.242 183.278 278.612 182.873 271.396C174.242 261.837 174.074 270.538 166.979 276.707C159.883 282.877 182.047 351.248 183.162 354.138C184.277 357.028 180.399 364.381 179.413 367.335C178.466 370.17 180.95 370.129 182.916 367.661C182.439 368.978 182.402 371.184 185.809 372.674C189.524 374.299 192.787 371.835 194.167 368.355L194.189 368.301Z" fill="#FABF9D"/>
<path d="M130.6 170.435C137.101 170.435 137.256 185.198 138.812 183.312C143.848 177.209 131.712 159.307 116.853 161.397C111.055 162.212 106.573 166.189 103.603 170.442C103.598 170.439 103.593 170.437 103.588 170.435C98.4474 168.038 99.0626 175.042 99.5775 179.157C99.3177 180.438 99.3444 181.397 99.6717 181.828C100.023 182.291 99.8107 181.02 99.5775 179.157C100.04 176.879 101.408 173.585 103.603 170.442C118.099 177.192 123.763 170.435 130.6 170.435Z" fill="#222222"/>
<path d="M158.876 328.097C155.053 331.162 138.796 311.85 135.194 303.487C135.131 302.56 144.645 298.999 148.216 300.15C153.536 301.865 159.758 327.39 158.876 328.097Z" fill="#9BB7E0"/>
<path d="M140.07 305.808C141.386 309.291 146.246 315.745 150.518 318.345" stroke="white" stroke-width="0.4"/>
<path d="M84.2366 313.325C86.639 316.901 106.734 302.483 107.509 292.328C107.789 288.668 100.333 290.23 96.9788 291.195C93.6244 292.16 83.6026 312.381 84.2366 313.325Z" fill="#9BB7E0"/>
<path d="M103.397 295.295C101.244 300.27 91.9472 308.565 89.5015 309.449" stroke="white" stroke-width="0.4"/>
<path d="M103.557 294.558C93.2678 293.272 93.4821 288.95 94.8754 286.949C100.234 279.339 132.534 296.199 131.248 297.914C129.962 299.629 116.418 296.166 103.557 294.558Z" fill="#222222"/>
<path d="M50.2188 254.962C52.6335 257.005 58.7319 246.14 60.6667 241.032C63.4528 238.71 77.8477 250.087 77.8477 254.962C77.8477 259.838 62.5241 275.858 50.2188 277.251C37.9136 278.644 24.2153 234.299 20.2683 233.602C16.3213 232.906 13.7573 229.655 12.6065 225.244C12.122 223.387 13.5352 220.601 15.3926 220.601C16.7857 220.601 5.11081 209.158 7.2665 208.296C8.89172 207.645 19.3396 220.601 17.7144 218.047C16.0891 215.493 9.82042 206.485 11.4456 205.509C12.6065 204.813 19.5718 216.654 24.4474 219.208C28.786 221.48 27.2335 226.173 26.7692 228.959C26.3048 231.745 47.2006 252.408 50.2188 254.962Z" fill="#FABF9D"/>
<rect x="-1.08706" y="0.904607" width="9.14439" height="4.96519" rx="1" transform="matrix(-0.99583 -0.0912235 -0.0912251 0.99583 121.794 291.377)" stroke="#D8D8D8" stroke-width="2"/>
<path d="M121.441 229.03C123.622 232.483 127.175 222.099 130.431 217.253C134.747 216.117 150.518 219.333 158.242 225.012C165.965 230.691 187.435 258.509 187.435 272.143C187.435 278.412 172.343 281.662 162.824 281.662C151.562 281.662 152.683 250.319 151.2 249.021C147.965 246.19 161.959 302.546 153.073 307.433C139.142 315.095 127.666 295.36 123.354 293.503C107.131 286.514 101.994 295.108 86.2301 287.234C72.3138 280.283 88.7604 243.586 90.3191 238.344C91.1998 235.382 85.1976 251.862 81.563 258.677C77.9283 265.492 59.4312 255.216 56.0237 245.675C52.6163 236.135 85.1768 217.561 92.243 215.628C100.532 213.36 112.862 212.644 113.813 214.522C115.796 218.435 118.445 224.287 121.441 229.03Z" fill="#F7F7F7"/>
<path d="M59.729 242.181C64.7134 237.479 75.4722 227.905 78.6322 227.228" stroke="white" stroke-width="0.4"/>
<path d="M151.084 226.285C158.716 229.728 164.602 237.145 170.493 248.927" stroke="white" stroke-width="0.4"/>
<path d="M121.264 230.12C123.199 237.627 118.912 251.747 116.156 260.999C112.906 271.911 114.299 285.609 119.639 292.11" stroke="#E5E5E5" stroke-width="0.5"/>
<path d="M91.3135 249.39C91.3135 248.09 92.4744 241.729 95.0283 240.568C96.1892 239.639 103.233 241.693 103.619 242.657C104.548 244.979 102.922 248.926 101.994 251.248C101.065 253.57 97.8145 257.583 94.3318 256.588C91.3136 255.725 91.3135 251.016 91.3135 249.39Z" fill="#8E5353"/>
<path d="M99.9045 183.685C98.7437 183.453 98.2793 186.239 99.9045 187.4" stroke="#EAA8A4"/>
<path d="M140.177 183.235C141.34 183.003 141.806 185.779 140.177 186.936" stroke="#EAA8A4"/>
<ellipse rx="0.928699" ry="0.928692" transform="matrix(-1 0 0 1 123.586 239.407)" fill="#E5E5E5"/>
<ellipse rx="0.928699" ry="0.928692" transform="matrix(-1 0 0 1 117.084 283.52)" fill="#E5E5E5"/>
<ellipse rx="0.928699" ry="0.928692" transform="matrix(-1 0 0 1 118.478 258.445)" fill="#E5E5E5"/>
<path d="M127.301 186.936C127.301 187.448 127.716 186.936 128.229 186.936C128.742 186.936 129.158 187.448 129.158 186.936C129.158 186.423 128.742 186.007 128.229 186.007C127.716 186.007 127.301 186.423 127.301 186.936Z" fill="#3F0000"/>
<path d="M113.371 186.936C113.371 187.448 113.787 186.936 114.299 186.936C114.812 186.936 115.228 187.448 115.228 186.936C115.228 186.423 114.812 186.007 114.299 186.007C113.787 186.007 113.371 186.423 113.371 186.936Z" fill="#3F0000"/>
<path d="M126.372 182.694C126.372 183.057 127.203 182.089 128.229 182.089C129.255 182.089 130.087 183.057 130.087 182.694C130.087 182.452 129.255 181.847 128.229 181.847C127.203 181.847 126.372 182.452 126.372 182.694Z" fill="#3F0000"/>
<path d="M112.441 182.694C112.441 183.057 113.273 182.089 114.299 182.089C115.325 182.089 116.156 183.057 116.156 182.694C116.156 182.452 115.325 181.847 114.299 181.847C113.273 181.847 112.441 182.452 112.441 182.694Z" fill="#3F0000"/>
<path d="M121.117 189.257C121.463 191.115 122.031 194.829 121.532 194.829C121.034 194.829 120.449 194.261 120.103 194.133" stroke="#E76161" stroke-width="0.5"/>
<path d="M122.218 229.909C122.218 229.528 127.899 221.103 130.47 217.008L133.724 217.008C134.943 217.008 129.741 229.468 127.233 235.562C125.773 233.88 122.218 230.29 122.218 229.909Z" fill="#E5E5E5"/>
<path d="M122.282 230.135C122.434 229.602 116.638 219.254 113.655 214.176C113.02 213.923 111.466 213.473 110.857 213.473C110.247 213.473 114.475 228.738 115.617 234.705C118.474 234.514 122.13 230.668 122.282 230.135Z" fill="#E5E5E5"/>
<path d="M290.964 218.403C288.892 220.129 285.246 220.622 282.56 221.401C282.56 227.661 289.446 234.717 295.896 234.717C302.345 234.717 309.485 218.043 304.622 218.403C299.5 218.782 300.448 211.953 299.69 209.297C298.931 206.642 293.619 206.452 292.671 209.297C291.722 212.143 292.102 217.454 290.964 218.403Z" fill="#F3AF88"/>
<path d="M222.829 335.794C222.187 333.208 221.862 331.897 226.737 323.674C229.46 319.082 234.285 298.638 238.204 280.224C239.933 272.1 241.486 264.37 242.605 258.572C250.64 251.777 249.823 258.841 254.892 264.613C259.961 270.385 234.528 323.316 233.308 325.534C232.089 327.752 234.423 334.13 234.899 336.63C235.354 339.029 233.348 338.724 232.026 336.51C232.269 337.629 232.057 339.419 229.135 340.252C225.949 341.161 223.577 338.809 222.841 335.84L222.829 335.794Z" fill="#FABF9D"/>
<path d="M335.732 304.525C333.368 292.838 321.639 284.074 316.13 280.164C305.999 280.164 282.66 287.803 274.84 290.291C267.02 292.779 266.984 303.921 264.785 312.303C261.75 323.874 266.938 334.308 264.785 343.413C260.75 360.486 253.593 376.23 257.198 387.233C261.182 399.395 344.906 395.57 364.945 376.23C381.259 360.486 352.139 351.228 350.718 334.877C348.59 310.406 339.146 321.408 335.732 304.525Z" fill="#7EB0FB"/>
<path d="M335.732 304.525C333.368 292.838 321.639 284.074 316.13 280.164C305.999 280.164 282.66 287.803 274.84 290.291C267.02 292.779 266.984 303.921 264.785 312.303C261.75 323.874 266.938 334.308 264.785 343.413C260.75 360.486 253.593 376.23 257.198 387.233C261.182 399.395 344.906 395.57 364.945 376.23C381.259 360.486 352.139 351.228 350.718 334.877C348.59 310.406 339.146 321.408 335.732 304.525Z" fill="url(#paint4_linear)"/>
<path d="M298.931 205.125H293.619C293.619 205.439 294.248 206.855 296.085 207.012C297.555 207.138 298.507 206.014 298.931 205.125Z" fill="white"/>
<path d="M265.145 310.478C268.269 312.982 281.571 296.941 284.513 290.108C284.565 289.351 276.791 286.442 273.875 287.382C269.527 288.783 264.91 310.289 265.145 310.478Z" fill="#9BB7E0"/>
<path d="M329.471 292.385C328.618 295.8 309.174 290.298 305.759 282.711C304.529 279.975 310.691 279.106 313.537 278.917C316.382 278.727 329.697 291.484 329.471 292.385Z" fill="#9BB7E0"/>
<path d="M309.744 283.848C312.779 287.073 322.226 290.867 324.35 290.867" stroke="white" stroke-width="0.4"/>
<path d="M310.363 282.814C318.769 281.763 318.594 278.231 317.456 276.596C313.078 270.379 286.687 284.154 287.738 285.555C288.789 286.957 299.855 284.127 310.363 282.814Z" fill="#222222"/>
<path d="M361.117 226.658C359.576 228.733 343.251 237.623 340.761 233.919C338.112 232.591 334.664 239.212 335.572 243.091C336.479 246.97 346.924 244.487 356.973 243.305C367.022 242.123 377.958 205.379 380.968 204.09C383.979 202.801 385.414 199.738 385.508 196.015C385.548 194.447 383.905 192.493 382.427 192.839C381.319 193.098 388.477 181.822 386.602 181.537C385.188 181.322 379.287 193.574 380.105 191.239C380.923 188.905 384.233 180.572 382.759 180.098C381.705 179.76 378.368 190.477 374.964 193.416C371.936 196.031 374.044 199.476 374.932 201.606C375.82 203.736 363.042 224.064 361.117 226.658Z" fill="#FABF9D"/>
<rect x="294.845" y="281.197" width="7.1054" height="3.69087" rx="1" transform="rotate(-5.23404 294.845 281.197)" stroke="#D8D8D8" stroke-width="2"/>
<path d="M280.53 292.005C279.456 294.851 275.485 300.124 271.994 302.249" stroke="white" stroke-width="0.4"/>
<path d="M285.543 220.922C288.204 224.882 293.97 232.095 295.751 229.274C298.199 225.399 300.392 219.252 303.732 218.324C307.073 217.396 317.423 214.097 325.142 215.15C333.202 216.249 336.133 227.403 351.886 226.873C370.203 220.809 368.089 207.372 372.035 203.427C373.134 202.328 381.56 203.883 380.827 207.823C379.985 212.351 378.629 240.269 355.183 249.794C347.489 252.919 335.4 250.686 326.241 242.992C322.82 240.119 339.703 272.117 328.333 277.796C315.453 284.229 307.443 276.241 294.188 281.951C290.665 283.469 282.075 297.879 269.907 293.333C261.636 290.244 264.923 269.665 267.664 257.867C261.651 276.471 246.242 312.208 234.654 323.796C233.921 324.529 226.228 323.063 225.861 319.766C224.631 308.695 235.13 247.219 260.665 222.684C266.313 217.257 282.017 219.994 285.543 220.922Z" fill="#F7F7F7"/>
<path d="M295.896 230.165C294.315 236.298 297.818 247.835 300.069 255.394C302.725 264.31 301.587 275.502 297.224 280.813" stroke="#E5E5E5" stroke-width="0.5"/>
<path d="M320.367 245.91C320.367 244.847 319.419 239.65 317.332 238.701C316.383 237.942 310.628 239.621 310.313 240.408C309.554 242.305 310.882 245.53 311.641 247.427C312.4 249.324 315.056 252.603 317.901 251.79C320.367 251.086 320.367 247.237 320.367 245.91Z" fill="#960202"/>
<path d="M294.947 229.785C293.217 229.86 286.96 219.852 284.061 220.661C284.061 221.789 282.948 240.028 286.613 240.78C290.278 241.532 297.108 229.691 294.947 229.785Z" fill="#E5E5E5"/>
<path d="M295.137 229.785C295.517 229.406 297.983 218.972 305.533 217.868C302.646 223.089 309.194 234.207 306.393 237.156C302.892 240.841 294.609 230.313 295.137 229.785Z" fill="#E5E5E5"/>
<circle cx="293.998" cy="237.752" r="0.758783" fill="#E5E5E5"/>
<circle cx="298.172" cy="253.307" r="0.758783" fill="#E5E5E5"/>
<path d="M271.798 182.14C268.95 193.557 272.984 207.388 275.358 212.877C251.873 224.675 247.11 239.78 250.774 238.963C266.692 235.411 255.765 247.935 269.458 245.191C283.15 242.446 278.946 254.349 287.409 254.349C294.369 254.349 296.567 271.934 311.588 274.132C323.837 275.925 330.012 242.156 334.668 232.002C339.323 221.848 332.836 212.877 319.647 214.784C311.919 215.901 323.006 207.663 322.185 190.099C321.363 172.534 314.791 160.459 300.277 158.264C285.764 156.068 275.358 167.869 271.798 182.14Z" fill="#8FA5C8"/>
<path d="M271.798 182.14C268.95 193.557 272.984 207.388 275.358 212.877C251.873 224.675 247.11 239.78 250.774 238.963C266.692 235.411 255.765 247.935 269.458 245.191C283.15 242.446 278.946 254.349 287.409 254.349C294.369 254.349 296.567 271.934 311.588 274.132C323.837 275.925 330.012 242.156 334.668 232.002C339.323 221.848 332.836 212.877 319.647 214.784C311.919 215.901 323.006 207.663 322.185 190.099C321.363 172.534 314.791 160.459 300.277 158.264C285.764 156.068 275.358 167.869 271.798 182.14Z" fill="url(#paint5_linear)"/>
<path d="M294.297 212.581C289.24 212.32 277.634 199.031 281.397 188.3C292.537 156.534 312.457 175.268 313.456 190.576C314.025 199.302 303.528 213.059 294.297 212.581Z" fill="#FABF9D"/>
<circle cx="299.31" cy="273.794" r="0.758783" fill="#E5E5E5"/>
<path d="M291.722 185.97C291.722 186.267 291.042 185.476 290.204 185.476C289.366 185.476 288.687 186.267 288.687 185.97C288.687 185.772 289.366 185.278 290.204 185.278C291.042 185.278 291.722 185.772 291.722 185.97Z" fill="#3F0000"/>
<path d="M303.104 185.97C303.104 186.267 302.425 185.476 301.587 185.476C300.748 185.476 300.069 186.267 300.069 185.97C300.069 185.772 300.748 185.278 301.587 185.278C302.425 185.278 303.104 185.772 303.104 185.97Z" fill="#3F0000"/>
<path d="M295.235 191.704C294.952 193.221 294.488 196.256 294.896 196.256C295.303 196.256 295.78 195.792 296.063 195.687" stroke="#E76161" stroke-width="0.5"/>
<path d="M314.884 219.546C314.152 225.042 312.466 232.515 308.656 234.567" stroke="white" stroke-width="0.3"/>
<path d="M297.665 175.218C293.72 175.218 290.339 175.951 284.477 180.713C288.14 173.386 295.297 167.289 302.794 172.287C310.488 177.416 311.009 182.029 310.854 181.812C307.191 176.683 299.864 175.218 297.665 175.218Z" fill="#9CB0CF"/>
<path d="M277.151 215.15C278.738 218.936 283.745 227.239 291.072 230.17" stroke="white" stroke-width="0.3"/>
<path d="M291.072 189.872C291.072 190.479 290.711 189.861 290.104 189.861C289.497 189.861 288.874 190.479 288.874 189.872C288.874 189.265 289.366 188.773 289.973 188.773C290.58 188.773 291.072 189.265 291.072 189.872Z" fill="#3F0000"/>
<path d="M302.795 189.872C302.795 190.479 302.115 189.912 301.508 189.912C300.901 189.912 300.597 190.479 300.597 189.872C300.597 189.265 301.089 188.773 301.696 188.773C302.303 188.773 302.795 189.265 302.795 189.872Z" fill="#3F0000"/>
<path d="M296.14 199.199C296.944 198.972 296.917 198.989 297.434 198.844C298.42 198.566 299.153 197.935 299.2 199.286C299.219 199.833 299.041 202.611 297.434 203.064C295.336 203.655 293.351 201.211 293.453 200.371C293.556 199.531 295.136 199.482 296.14 199.199Z" fill="white"/>
<path d="M53.3451 367.75C52.1075 361.562 56.8405 355.789 63.1509 355.789H371.505C376.272 355.789 380.376 359.154 381.311 363.828L391.153 413.038C392.39 419.226 387.657 425 381.347 425H72.993C68.2262 425 64.1221 421.635 63.1872 416.961L53.3451 367.75Z" fill="#EBDC14"/>
<path d="M53.4165 368.107C52.1559 361.804 57.0844 355.965 63.5099 356.15L342.915 364.188C357.907 364.619 371.398 373.401 377.861 386.935L389.204 410.69C392.374 417.327 387.535 425 380.181 425H72.993C68.2262 425 64.1221 421.635 63.1872 416.961L53.4165 368.107Z" fill="#F1E21A"/>
<path d="M154.766 381.467C155.246 381.467 155.686 381.657 156.086 382.037C156.506 382.397 156.716 382.857 156.716 383.417C156.716 383.597 156.686 383.797 156.626 384.017L150.716 401.417C150.596 401.757 150.386 402.027 150.086 402.227C149.786 402.427 149.456 402.537 149.096 402.557C148.736 402.557 148.396 402.457 148.076 402.257C147.756 402.057 147.506 401.767 147.326 401.387L143.066 391.697L138.776 401.387C138.596 401.767 138.346 402.057 138.026 402.257C137.706 402.457 137.366 402.557 137.006 402.557C136.646 402.537 136.316 402.427 136.016 402.227C135.716 402.027 135.506 401.757 135.386 401.417L129.476 384.017C129.416 383.797 129.386 383.597 129.386 383.417C129.386 382.857 129.586 382.397 129.986 382.037C130.406 381.657 130.866 381.467 131.366 381.467C131.766 381.467 132.126 381.577 132.446 381.797C132.766 381.997 132.986 382.277 133.106 382.637L137.576 396.197L141.476 386.837C141.636 386.477 141.866 386.197 142.166 385.997C142.466 385.777 142.806 385.677 143.186 385.697C143.566 385.677 143.896 385.777 144.176 385.997C144.476 386.197 144.706 386.477 144.866 386.837L148.556 396.107L152.996 382.637C153.116 382.277 153.336 381.997 153.656 381.797C153.996 381.577 154.366 381.467 154.766 381.467ZM175.337 399.107C175.857 399.107 176.287 399.287 176.627 399.647C176.987 399.987 177.167 400.387 177.167 400.847C177.167 401.347 176.987 401.757 176.627 402.077C176.287 402.397 175.857 402.557 175.337 402.557H165.287C164.767 402.557 164.327 402.387 163.967 402.047C163.627 401.687 163.457 401.247 163.457 400.727V383.387C163.457 382.867 163.627 382.437 163.967 382.097C164.327 381.737 164.767 381.557 165.287 381.557H175.337C175.857 381.557 176.287 381.727 176.627 382.067C176.987 382.387 177.167 382.807 177.167 383.327C177.167 383.827 176.997 384.237 176.657 384.557C176.317 384.857 175.877 385.007 175.337 385.007H167.207V390.107H173.987C174.507 390.107 174.937 390.277 175.277 390.617C175.637 390.937 175.817 391.357 175.817 391.877C175.817 392.377 175.647 392.787 175.307 393.107C174.967 393.407 174.527 393.557 173.987 393.557H167.207V399.107H175.337ZM196.205 399.047C196.725 399.047 197.155 399.217 197.495 399.557C197.855 399.877 198.035 400.297 198.035 400.817C198.035 401.317 197.855 401.737 197.495 402.077C197.155 402.397 196.725 402.557 196.205 402.557H186.455C185.935 402.557 185.495 402.387 185.135 402.047C184.795 401.687 184.625 401.247 184.625 400.727V383.387C184.625 382.867 184.805 382.437 185.165 382.097C185.525 381.737 185.985 381.557 186.545 381.557C187.045 381.557 187.475 381.737 187.835 382.097C188.195 382.437 188.375 382.867 188.375 383.387V399.047H196.205ZM219.878 382.577C220.498 382.897 220.808 383.407 220.808 384.107C220.808 384.527 220.658 384.937 220.358 385.337C220.038 385.757 219.628 385.967 219.128 385.967C218.788 385.967 218.448 385.877 218.108 385.697C217.128 385.237 216.068 385.007 214.928 385.007C213.528 385.007 212.308 385.307 211.268 385.907C210.228 386.487 209.428 387.317 208.868 388.397C208.308 389.457 208.028 390.677 208.028 392.057C208.028 394.417 208.658 396.207 209.918 397.427C211.198 398.647 212.868 399.257 214.928 399.257C216.148 399.257 217.208 399.027 218.108 398.567C218.468 398.407 218.788 398.327 219.068 398.327C219.588 398.327 220.028 398.547 220.388 398.987C220.688 399.367 220.838 399.777 220.838 400.217C220.838 400.537 220.758 400.827 220.598 401.087C220.438 401.347 220.208 401.547 219.908 401.687C218.348 402.467 216.688 402.857 214.928 402.857C212.968 402.857 211.168 402.447 209.528 401.627C207.888 400.787 206.578 399.557 205.598 397.937C204.618 396.317 204.128 394.357 204.128 392.057C204.128 390.017 204.588 388.187 205.508 386.567C206.448 384.947 207.738 383.687 209.378 382.787C211.018 381.867 212.868 381.407 214.928 381.407C216.708 381.407 218.358 381.797 219.878 382.577ZM247.306 392.057C247.306 394.037 246.866 395.857 245.986 397.517C245.106 399.157 243.886 400.457 242.326 401.417C240.786 402.377 239.046 402.857 237.106 402.857C235.166 402.857 233.416 402.377 231.856 401.417C230.316 400.457 229.106 399.157 228.226 397.517C227.366 395.857 226.936 394.037 226.936 392.057C226.936 390.077 227.366 388.267 228.226 386.627C229.106 384.967 230.316 383.657 231.856 382.697C233.416 381.737 235.166 381.257 237.106 381.257C239.046 381.257 240.786 381.737 242.326 382.697C243.886 383.657 245.106 384.967 245.986 386.627C246.866 388.267 247.306 390.077 247.306 392.057ZM243.406 392.057C243.406 390.717 243.136 389.507 242.596 388.427C242.056 387.327 241.306 386.457 240.346 385.817C239.386 385.177 238.306 384.857 237.106 384.857C235.886 384.857 234.796 385.177 233.836 385.817C232.896 386.437 232.156 387.297 231.616 388.397C231.096 389.497 230.836 390.717 230.836 392.057C230.836 393.397 231.096 394.617 231.616 395.717C232.156 396.817 232.896 397.687 233.836 398.327C234.796 398.947 235.886 399.257 237.106 399.257C238.306 399.257 239.386 398.937 240.346 398.297C241.306 397.657 242.056 396.797 242.596 395.717C243.136 394.617 243.406 393.397 243.406 392.057ZM272.96 381.527C273.46 381.527 273.89 381.707 274.25 382.067C274.63 382.407 274.82 382.837 274.82 383.357V400.727C274.82 401.247 274.65 401.687 274.31 402.047C273.97 402.387 273.52 402.557 272.96 402.557C272.4 402.557 271.94 402.387 271.58 402.047C271.24 401.707 271.07 401.267 271.07 400.727V388.637L266.12 396.197C265.92 396.437 265.69 396.637 265.43 396.797C265.17 396.937 264.9 396.997 264.62 396.977C264.36 396.997 264.1 396.937 263.84 396.797C263.58 396.637 263.35 396.437 263.15 396.197L258.2 388.367V400.727C258.2 401.267 258.04 401.707 257.72 402.047C257.4 402.387 256.98 402.557 256.46 402.557C255.96 402.557 255.55 402.387 255.23 402.047C254.91 401.687 254.75 401.247 254.75 400.727V383.357C254.75 382.857 254.93 382.427 255.29 382.067C255.67 381.707 256.12 381.527 256.64 381.527C256.94 381.527 257.24 381.607 257.54 381.767C257.84 381.907 258.07 382.097 258.23 382.337L264.77 392.387L271.49 382.337C271.65 382.097 271.86 381.907 272.12 381.767C272.4 381.607 272.68 381.527 272.96 381.527ZM295.21 399.107C295.73 399.107 296.16 399.287 296.5 399.647C296.86 399.987 297.04 400.387 297.04 400.847C297.04 401.347 296.86 401.757 296.5 402.077C296.16 402.397 295.73 402.557 295.21 402.557H285.16C284.64 402.557 284.2 402.387 283.84 402.047C283.5 401.687 283.33 401.247 283.33 400.727V383.387C283.33 382.867 283.5 382.437 283.84 382.097C284.2 381.737 284.64 381.557 285.16 381.557H295.21C295.73 381.557 296.16 381.727 296.5 382.067C296.86 382.387 297.04 382.807 297.04 383.327C297.04 383.827 296.87 384.237 296.53 384.557C296.19 384.857 295.75 385.007 295.21 385.007H287.08V390.107H293.86C294.38 390.107 294.81 390.277 295.15 390.617C295.51 390.937 295.69 391.357 295.69 391.877C295.69 392.377 295.52 392.787 295.18 393.107C294.84 393.407 294.4 393.557 293.86 393.557H287.08V399.107H295.21ZM306.268 395.927C305.588 395.927 305.218 395.547 305.158 394.787L304.288 383.747C304.248 383.127 304.408 382.607 304.768 382.187C305.148 381.767 305.638 381.557 306.238 381.557C306.838 381.557 307.328 381.767 307.708 382.187C308.088 382.607 308.248 383.127 308.188 383.747L307.348 394.787C307.288 395.547 306.928 395.927 306.268 395.927ZM306.058 402.557C305.478 402.557 305.028 402.407 304.708 402.107C304.408 401.787 304.258 401.337 304.258 400.757V400.247C304.258 399.667 304.408 399.227 304.708 398.927C305.028 398.607 305.478 398.447 306.058 398.447H306.448C307.028 398.447 307.468 398.607 307.768 398.927C308.088 399.227 308.248 399.667 308.248 400.247V400.757C308.248 401.337 308.088 401.787 307.768 402.107C307.468 402.407 307.028 402.557 306.448 402.557H306.058Z" fill="white"/>
<rect x="11" y="121" width="90" height="30" rx="8" fill="#75AE46"/>
<rect x="329" y="137" width="90" height="30" rx="8" fill="#FD566B"/>
<path d="M339.481 156.566C339.472 156.687 339.425 156.79 339.341 156.874C339.257 156.958 339.155 157 339.033 157C338.903 157 338.795 156.963 338.711 156.888C338.637 156.804 338.599 156.697 338.599 156.566V147.634C338.599 147.503 338.641 147.401 338.725 147.326C338.809 147.242 338.917 147.2 339.047 147.2C339.169 147.2 339.271 147.242 339.355 147.326C339.439 147.41 339.481 147.513 339.481 147.634V156.566ZM343.367 147.956C343.367 148.217 343.297 148.483 343.157 148.754C343.027 149.015 342.859 149.235 342.653 149.412C342.448 149.58 342.247 149.664 342.051 149.664C341.949 149.664 341.86 149.641 341.785 149.594C341.72 149.538 341.687 149.459 341.687 149.356C341.687 149.263 341.711 149.197 341.757 149.16C341.804 149.123 341.874 149.09 341.967 149.062C342.07 149.034 342.145 149.006 342.191 148.978C342.322 148.913 342.42 148.819 342.485 148.698C342.56 148.567 342.597 148.427 342.597 148.278C342.597 148.175 342.569 148.091 342.513 148.026C342.457 147.961 342.383 147.928 342.289 147.928C342.159 147.928 342.033 147.97 341.911 148.054C341.799 147.961 341.743 147.849 341.743 147.718C341.743 147.559 341.827 147.419 341.995 147.298C342.163 147.167 342.345 147.102 342.541 147.102C342.784 147.102 342.98 147.177 343.129 147.326C343.288 147.475 343.367 147.685 343.367 147.956ZM353.53 149.79C354.37 149.79 354.986 150.051 355.378 150.574C355.779 151.087 355.98 151.769 355.98 152.618V156.58C355.98 156.701 355.938 156.804 355.854 156.888C355.779 156.963 355.681 157 355.56 157C355.439 157 355.336 156.963 355.252 156.888C355.177 156.804 355.14 156.701 355.14 156.58V152.66C355.14 152.044 354.991 151.545 354.692 151.162C354.403 150.77 353.95 150.574 353.334 150.574C352.942 150.574 352.569 150.667 352.214 150.854C351.869 151.041 351.589 151.297 351.374 151.624C351.159 151.941 351.052 152.287 351.052 152.66V156.58C351.052 156.701 351.01 156.804 350.926 156.888C350.851 156.963 350.753 157 350.632 157C350.511 157 350.408 156.963 350.324 156.888C350.249 156.804 350.212 156.701 350.212 156.58V152.618C350.212 152.011 350.072 151.521 349.792 151.148C349.512 150.765 349.073 150.574 348.476 150.574C348.093 150.574 347.729 150.667 347.384 150.854C347.048 151.041 346.773 151.293 346.558 151.61C346.353 151.918 346.25 152.254 346.25 152.618V156.58C346.25 156.701 346.208 156.804 346.124 156.888C346.049 156.963 345.951 157 345.83 157C345.709 157 345.606 156.963 345.522 156.888C345.447 156.804 345.41 156.701 345.41 156.58V150.308C345.41 150.187 345.447 150.089 345.522 150.014C345.606 149.93 345.709 149.888 345.83 149.888C345.951 149.888 346.049 149.93 346.124 150.014C346.208 150.089 346.25 150.187 346.25 150.308V151.12C346.502 150.737 346.843 150.42 347.272 150.168C347.701 149.916 348.154 149.79 348.63 149.79C349.171 149.79 349.638 149.921 350.03 150.182C350.422 150.443 350.702 150.826 350.87 151.33C351.066 150.919 351.425 150.56 351.948 150.252C352.471 149.944 352.998 149.79 353.53 149.79ZM365.664 157.14C364.992 157.14 364.394 157.028 363.872 156.804C363.358 156.58 362.859 156.23 362.374 155.754C362.262 155.661 362.206 155.549 362.206 155.418C362.206 155.306 362.248 155.203 362.332 155.11C362.425 155.017 362.528 154.97 362.64 154.97C362.752 154.97 362.854 155.017 362.948 155.11C363.676 155.913 364.586 156.314 365.678 156.314C366.35 156.314 366.905 156.155 367.344 155.838C367.792 155.521 368.016 155.105 368.016 154.592C368.016 154.191 367.904 153.859 367.68 153.598C367.465 153.327 367.18 153.108 366.826 152.94C366.471 152.772 366.018 152.599 365.468 152.422C364.87 152.245 364.366 152.049 363.956 151.834C363.554 151.619 363.228 151.335 362.976 150.98C362.724 150.616 362.598 150.159 362.598 149.608C362.598 149.113 362.728 148.675 362.99 148.292C363.26 147.909 363.634 147.611 364.11 147.396C364.595 147.172 365.15 147.06 365.776 147.06C366.345 147.06 366.877 147.158 367.372 147.354C367.876 147.541 368.277 147.811 368.576 148.166C368.716 148.325 368.786 148.46 368.786 148.572C368.786 148.675 368.739 148.773 368.646 148.866C368.552 148.95 368.45 148.992 368.338 148.992C368.244 148.992 368.165 148.959 368.1 148.894C367.848 148.595 367.512 148.353 367.092 148.166C366.672 147.979 366.233 147.886 365.776 147.886C365.094 147.886 364.539 148.04 364.11 148.348C363.68 148.647 363.466 149.057 363.466 149.58C363.466 150.121 363.671 150.537 364.082 150.826C364.492 151.115 365.08 151.381 365.846 151.624C366.508 151.82 367.05 152.021 367.47 152.226C367.89 152.431 368.23 152.725 368.492 153.108C368.762 153.481 368.898 153.976 368.898 154.592C368.898 155.068 368.758 155.502 368.478 155.894C368.207 156.277 367.824 156.58 367.33 156.804C366.844 157.028 366.289 157.14 365.664 157.14ZM372.469 150.658V155.348C372.469 155.703 372.534 155.945 372.665 156.076C372.796 156.197 372.968 156.258 373.183 156.258C373.239 156.258 373.309 156.249 373.393 156.23C373.477 156.202 373.542 156.188 373.589 156.188C373.673 156.188 373.743 156.225 373.799 156.3C373.864 156.365 373.897 156.445 373.897 156.538C373.897 156.669 373.822 156.781 373.673 156.874C373.524 156.958 373.346 157 373.141 157C372.889 157 372.665 156.977 372.469 156.93C372.273 156.883 372.082 156.743 371.895 156.51C371.718 156.277 371.629 155.903 371.629 155.39V150.658H370.607C370.495 150.658 370.397 150.621 370.313 150.546C370.238 150.471 370.201 150.378 370.201 150.266C370.201 150.154 370.238 150.061 370.313 149.986C370.397 149.911 370.495 149.874 370.607 149.874H371.629V148.32C371.629 148.199 371.666 148.101 371.741 148.026C371.825 147.942 371.928 147.9 372.049 147.9C372.17 147.9 372.268 147.942 372.343 148.026C372.427 148.101 372.469 148.199 372.469 148.32V149.874H373.869C373.972 149.874 374.06 149.916 374.135 150C374.219 150.084 374.261 150.177 374.261 150.28C374.261 150.392 374.224 150.485 374.149 150.56C374.074 150.625 373.981 150.658 373.869 150.658H372.469ZM381.561 149.888C381.682 149.888 381.78 149.93 381.855 150.014C381.939 150.089 381.981 150.187 381.981 150.308V154.256C381.981 155.171 381.724 155.875 381.211 156.37C380.698 156.855 379.988 157.098 379.083 157.098C378.187 157.098 377.482 156.855 376.969 156.37C376.465 155.875 376.213 155.171 376.213 154.256V150.308C376.213 150.187 376.25 150.089 376.325 150.014C376.409 149.93 376.512 149.888 376.633 149.888C376.754 149.888 376.852 149.93 376.927 150.014C377.011 150.089 377.053 150.187 377.053 150.308V154.256C377.053 154.928 377.23 155.441 377.585 155.796C377.94 156.141 378.439 156.314 379.083 156.314C379.736 156.314 380.24 156.141 380.595 155.796C380.959 155.441 381.141 154.928 381.141 154.256V150.308C381.141 150.187 381.178 150.089 381.253 150.014C381.337 149.93 381.44 149.888 381.561 149.888ZM390.394 146.64C390.515 146.64 390.613 146.682 390.688 146.766C390.772 146.841 390.814 146.939 390.814 147.06V156.58C390.814 156.701 390.772 156.804 390.688 156.888C390.613 156.963 390.515 157 390.394 157C390.272 157 390.17 156.963 390.086 156.888C390.011 156.804 389.974 156.701 389.974 156.58V155.6C389.74 156.029 389.39 156.393 388.924 156.692C388.466 156.991 387.958 157.14 387.398 157.14C386.782 157.14 386.222 156.981 385.718 156.664C385.223 156.337 384.831 155.889 384.542 155.32C384.252 154.751 384.108 154.111 384.108 153.402C384.108 152.702 384.252 152.067 384.542 151.498C384.831 150.929 385.223 150.485 385.718 150.168C386.222 149.841 386.777 149.678 387.384 149.678C387.934 149.678 388.443 149.818 388.91 150.098C389.376 150.369 389.731 150.723 389.974 151.162V147.06C389.974 146.939 390.011 146.841 390.086 146.766C390.17 146.682 390.272 146.64 390.394 146.64ZM387.482 156.356C387.967 156.356 388.401 156.23 388.784 155.978C389.176 155.726 389.479 155.376 389.694 154.928C389.918 154.471 390.03 153.962 390.03 153.402C390.03 152.851 389.918 152.352 389.694 151.904C389.479 151.456 389.176 151.106 388.784 150.854C388.401 150.593 387.967 150.462 387.482 150.462C386.996 150.462 386.558 150.593 386.166 150.854C385.783 151.106 385.48 151.456 385.256 151.904C385.041 152.352 384.934 152.851 384.934 153.402C384.934 153.962 385.041 154.466 385.256 154.914C385.48 155.362 385.783 155.717 386.166 155.978C386.558 156.23 386.996 156.356 387.482 156.356ZM399.454 153.01C399.454 153.122 399.412 153.22 399.328 153.304C399.244 153.379 399.146 153.416 399.034 153.416H393.742C393.742 153.976 393.854 154.48 394.078 154.928C394.311 155.367 394.638 155.717 395.058 155.978C395.487 156.23 395.991 156.356 396.57 156.356C397.018 156.356 397.419 156.263 397.774 156.076C398.128 155.889 398.413 155.651 398.628 155.362C398.73 155.278 398.828 155.236 398.922 155.236C399.015 155.236 399.099 155.273 399.174 155.348C399.248 155.423 399.286 155.507 399.286 155.6C399.286 155.703 399.239 155.801 399.146 155.894C398.847 156.258 398.469 156.557 398.012 156.79C397.564 157.023 397.088 157.14 396.584 157.14C395.865 157.14 395.23 156.986 394.68 156.678C394.129 156.37 393.7 155.941 393.392 155.39C393.084 154.83 392.93 154.186 392.93 153.458C392.93 152.693 393.079 152.025 393.378 151.456C393.686 150.877 394.092 150.439 394.596 150.14C395.1 149.832 395.636 149.678 396.206 149.678C396.766 149.678 397.288 149.809 397.774 150.07C398.268 150.331 398.67 150.714 398.978 151.218C399.286 151.722 399.444 152.319 399.454 153.01ZM396.206 150.49C395.664 150.49 395.16 150.677 394.694 151.05C394.236 151.423 393.942 151.96 393.812 152.66H398.586V152.548C398.539 152.128 398.399 151.764 398.166 151.456C397.932 151.139 397.638 150.901 397.284 150.742C396.938 150.574 396.579 150.49 396.206 150.49ZM404.959 149.678C405.827 149.678 406.462 149.935 406.863 150.448C407.274 150.952 407.479 151.624 407.479 152.464V156.58C407.479 156.701 407.437 156.804 407.353 156.888C407.269 156.963 407.171 157 407.059 157C406.938 157 406.835 156.963 406.751 156.888C406.676 156.804 406.639 156.701 406.639 156.58V152.506C406.639 151.899 406.485 151.409 406.177 151.036C405.878 150.653 405.412 150.462 404.777 150.462C404.376 150.462 403.993 150.555 403.629 150.742C403.274 150.929 402.985 151.181 402.761 151.498C402.537 151.806 402.425 152.142 402.425 152.506V156.58C402.425 156.701 402.383 156.804 402.299 156.888C402.224 156.963 402.126 157 402.005 157C401.884 157 401.781 156.963 401.697 156.888C401.622 156.804 401.585 156.701 401.585 156.58V150.308C401.585 150.187 401.622 150.089 401.697 150.014C401.781 149.93 401.884 149.888 402.005 149.888C402.126 149.888 402.224 149.93 402.299 150.014C402.383 150.089 402.425 150.187 402.425 150.308V151.078C402.677 150.677 403.036 150.345 403.503 150.084C403.979 149.813 404.464 149.678 404.959 149.678ZM411.479 150.658V155.348C411.479 155.703 411.544 155.945 411.675 156.076C411.805 156.197 411.978 156.258 412.193 156.258C412.249 156.258 412.319 156.249 412.403 156.23C412.487 156.202 412.552 156.188 412.599 156.188C412.683 156.188 412.753 156.225 412.809 156.3C412.874 156.365 412.907 156.445 412.907 156.538C412.907 156.669 412.832 156.781 412.683 156.874C412.533 156.958 412.356 157 412.151 157C411.899 157 411.675 156.977 411.479 156.93C411.283 156.883 411.091 156.743 410.905 156.51C410.727 156.277 410.639 155.903 410.639 155.39V150.658H409.617C409.505 150.658 409.407 150.621 409.323 150.546C409.248 150.471 409.211 150.378 409.211 150.266C409.211 150.154 409.248 150.061 409.323 149.986C409.407 149.911 409.505 149.874 409.617 149.874H410.639V148.32C410.639 148.199 410.676 148.101 410.751 148.026C410.835 147.942 410.937 147.9 411.059 147.9C411.18 147.9 411.278 147.942 411.353 148.026C411.437 148.101 411.479 148.199 411.479 148.32V149.874H412.879C412.981 149.874 413.07 149.916 413.145 150C413.229 150.084 413.271 150.177 413.271 150.28C413.271 150.392 413.233 150.485 413.159 150.56C413.084 150.625 412.991 150.658 412.879 150.658H411.479Z" fill="white"/>
<path d="M47.281 131.2C47.4116 131.2 47.5143 131.242 47.589 131.326C47.673 131.401 47.715 131.503 47.715 131.634V140.566C47.7056 140.697 47.659 140.804 47.575 140.888C47.491 140.963 47.3883 141 47.267 141C47.1456 141 47.043 140.958 46.959 140.874C46.875 140.79 46.833 140.687 46.833 140.566V136.394H41.149V140.566C41.1396 140.687 41.093 140.79 41.009 140.874C40.925 140.958 40.8223 141 40.701 141C40.5703 141 40.463 140.963 40.379 140.888C40.3043 140.804 40.267 140.697 40.267 140.566V131.634C40.267 131.503 40.309 131.401 40.393 131.326C40.477 131.242 40.5843 131.2 40.715 131.2C40.8363 131.2 40.939 131.242 41.023 131.326C41.107 131.41 41.149 131.513 41.149 131.634V135.582H46.833V131.634C46.833 131.513 46.875 131.41 46.959 131.326C47.0523 131.242 47.1596 131.2 47.281 131.2ZM56.5811 137.01C56.5811 137.122 56.5391 137.22 56.4551 137.304C56.3711 137.379 56.2731 137.416 56.1611 137.416H50.8691C50.8691 137.976 50.9811 138.48 51.2051 138.928C51.4385 139.367 51.7651 139.717 52.1851 139.978C52.6145 140.23 53.1185 140.356 53.6971 140.356C54.1451 140.356 54.5465 140.263 54.9011 140.076C55.2558 139.889 55.5405 139.651 55.7551 139.362C55.8578 139.278 55.9558 139.236 56.0491 139.236C56.1425 139.236 56.2265 139.273 56.3011 139.348C56.3758 139.423 56.4131 139.507 56.4131 139.6C56.4131 139.703 56.3665 139.801 56.2731 139.894C55.9745 140.258 55.5965 140.557 55.1391 140.79C54.6911 141.023 54.2151 141.14 53.7111 141.14C52.9925 141.14 52.3578 140.986 51.8071 140.678C51.2565 140.37 50.8271 139.941 50.5191 139.39C50.2111 138.83 50.0571 138.186 50.0571 137.458C50.0571 136.693 50.2065 136.025 50.5051 135.456C50.8131 134.877 51.2191 134.439 51.7231 134.14C52.2271 133.832 52.7638 133.678 53.3331 133.678C53.8931 133.678 54.4158 133.809 54.9011 134.07C55.3958 134.331 55.7971 134.714 56.1051 135.218C56.4131 135.722 56.5718 136.319 56.5811 137.01ZM53.3331 134.49C52.7918 134.49 52.2878 134.677 51.8211 135.05C51.3638 135.423 51.0698 135.96 50.9391 136.66H55.7131V136.548C55.6665 136.128 55.5265 135.764 55.2931 135.456C55.0598 135.139 54.7658 134.901 54.4111 134.742C54.0658 134.574 53.7065 134.49 53.3331 134.49ZM59.6364 140.58C59.6364 140.701 59.5944 140.804 59.5104 140.888C59.4358 140.963 59.3378 141 59.2164 141C59.0951 141 58.9924 140.963 58.9084 140.888C58.8338 140.804 58.7964 140.701 58.7964 140.58V131.06C58.7964 130.939 58.8338 130.841 58.9084 130.766C58.9924 130.682 59.0951 130.64 59.2164 130.64C59.3378 130.64 59.4358 130.682 59.5104 130.766C59.5944 130.841 59.6364 130.939 59.6364 131.06V140.58ZM63.263 140.58C63.263 140.701 63.221 140.804 63.137 140.888C63.0623 140.963 62.9643 141 62.843 141C62.7217 141 62.619 140.963 62.535 140.888C62.4603 140.804 62.423 140.701 62.423 140.58V131.06C62.423 130.939 62.4603 130.841 62.535 130.766C62.619 130.682 62.7217 130.64 62.843 130.64C62.9643 130.64 63.0623 130.682 63.137 130.766C63.221 130.841 63.263 130.939 63.263 131.06V140.58ZM72.4369 137.416C72.4369 138.116 72.2829 138.751 71.9749 139.32C71.6669 139.889 71.2422 140.337 70.7009 140.664C70.1595 140.981 69.5575 141.14 68.8949 141.14C68.2322 141.14 67.6302 140.981 67.0889 140.664C66.5475 140.337 66.1229 139.889 65.8149 139.32C65.5069 138.751 65.3529 138.116 65.3529 137.416C65.3529 136.716 65.5069 136.081 65.8149 135.512C66.1229 134.943 66.5475 134.495 67.0889 134.168C67.6302 133.841 68.2322 133.678 68.8949 133.678C69.5575 133.678 70.1595 133.841 70.7009 134.168C71.2422 134.495 71.6669 134.943 71.9749 135.512C72.2829 136.081 72.4369 136.716 72.4369 137.416ZM71.5969 137.416C71.5969 136.856 71.4802 136.352 71.2469 135.904C71.0135 135.456 70.6869 135.106 70.2669 134.854C69.8562 134.593 69.3989 134.462 68.8949 134.462C68.3909 134.462 67.9335 134.593 67.5229 134.854C67.1122 135.106 66.7855 135.456 66.5429 135.904C66.3095 136.352 66.1929 136.856 66.1929 137.416C66.1929 137.967 66.3095 138.466 66.5429 138.914C66.7855 139.362 67.1122 139.717 67.5229 139.978C67.9335 140.23 68.3909 140.356 68.8949 140.356C69.3989 140.356 69.8562 140.23 70.2669 139.978C70.6869 139.726 71.0135 139.376 71.2469 138.928C71.4802 138.48 71.5969 137.976 71.5969 137.416Z" fill="white"/>
<defs>
<linearGradient id="paint0_linear" x1="260.172" y1="348.88" x2="191.927" y2="193.077" gradientUnits="userSpaceOnUse">
<stop stop-color="#BED4F4"/>
<stop offset="1" stop-color="#AABCD8"/>
</linearGradient>
<linearGradient id="paint1_linear" x1="186.633" y1="146.143" x2="200.374" y2="227.624" gradientUnits="userSpaceOnUse">
<stop stop-color="#C1AAFD"/>
<stop offset="1" stop-color="#4C2BA2"/>
</linearGradient>
<linearGradient id="paint2_linear" x1="248.544" y1="139.589" x2="268.477" y2="217.657" gradientUnits="userSpaceOnUse">
<stop stop-color="#C1AAFD"/>
<stop offset="1" stop-color="#4C2BA2"/>
</linearGradient>
<linearGradient id="paint3_linear" x1="146.619" y1="236.402" x2="79.8329" y2="384.942" gradientUnits="userSpaceOnUse">
<stop stop-color="#8DA6CC"/>
<stop offset="1" stop-color="#C1D6F7"/>
</linearGradient>
<linearGradient id="paint4_linear" x1="240.086" y1="177.159" x2="353.164" y2="370.324" gradientUnits="userSpaceOnUse">
<stop stop-color="#7E97BD"/>
<stop offset="1" stop-color="#C4D9FA"/>
</linearGradient>
<linearGradient id="paint5_linear" x1="239.069" y1="-51.2344" x2="320.114" y2="303.139" gradientUnits="userSpaceOnUse">
<stop stop-color="#889FC3"/>
<stop offset="1" stop-color="#C4DAFA"/>
</linearGradient>
</defs>
</svg>
